<?xml version="1.0" encoding="UTF-8" standalone="no"?>
<!-- Created with Inkscape (http://www.inkscape.org/) -->
<svg
   xmlns:svg="http://www.w3.org/2000/svg"
   xmlns="http://www.w3.org/2000/svg"
   version="1.0"
   width="708.66144"
   height="156.08763"
   id="svg4233">
  <defs
     id="defs4235">
    <clipPath
       id="clp3">
<path
   d="M 316.57,736.13 L 538.57,736.13 L 538.57,785.13 L 316.57,785.13 L 316.57,736.13 z "
   id="path4123" />

</clipPath>
  </defs>
  <g
     transform="translate(192.79882,58.931238)"
     id="layer1">
    <g
       transform="matrix(2.5581024,0,0,2.5581024,300.4003,-151.37959)"
       id="g4265">
      <path
         d="M 43.457734,56.386723 L 63.842564,56.386723 L 63.842564,76.771553 L 43.457734,76.771553 L 43.457734,56.386723 z "
         style="fill:#000000;fill-rule:nonzero;stroke:none"
         id="path4117" />
      <path
         d="M 43.457734,76.771553 L 63.842564,76.771553 L 63.842564,97.156383 L 43.457734,97.156383 L 43.457734,76.771553 z "
         style="fill:#009f3b;fill-rule:nonzero;stroke:none"
         id="path4119" />
      <g
         transform="matrix(1.2498363,0,0,-1.2498363,-588.69697,1017.4234)"
         style="fill:#009f3b;fill-rule:nonzero;stroke:none"
         id="q4">
<clipPath
   id="clipPath4246">
<path
   d="M 316.57,736.13 L 538.57,736.13 L 538.57,785.13 L 316.57,785.13 L 316.57,736.13 z "
   id="path4248" />

</clipPath>

<g
   clip-path="url(#clp3)"
   id="g4125">
<path
   d="M 522.1,768.93 L 538.41,768.93 L 538.41,752.62 L 522.1,752.62 L 522.1,768.93 z "
   style="fill:#df0023;fill-rule:nonzero;stroke:none"
   id="path4127" />

<path
   d="M 522.1,785.24 L 538.41,785.24 L 538.41,768.93 L 522.1,768.93 L 522.1,785.24 z "
   style="fill:#0089cf;fill-rule:nonzero;stroke:none"
   id="path4129" />

</g>

</g>
      <path
         d="M -179.2506,68.93508 C -179.2506,70.159919 -179.41308,73.621966 -183.7875,73.621966 C -185.59977,73.621966 -187.21205,73.109533 -187.21205,71.022306 C -187.21205,68.985073 -185.63726,68.385152 -183.89999,68.035197 C -182.17521,67.722738 -180.20047,67.685243 -179.2506,66.847853 L -179.2506,68.93508 z M -186.57464,62.723393 C -186.38716,60.511183 -184.99984,59.648796 -182.87512,59.648796 C -180.91288,59.648796 -179.2506,59.99875 -179.2506,62.398436 C -179.2506,64.685636 -182.43768,64.610646 -185.86223,65.085584 C -189.33678,65.598017 -192.79882,66.660378 -192.79882,71.259775 C -192.79882,75.434228 -189.72422,77.358976 -185.86223,77.358976 C -183.38755,77.358976 -180.7879,76.696563 -179.02563,74.846805 C -178.97563,75.509219 -178.82565,76.18413 -178.62568,76.809048 L -172.95142,76.809048 C -173.46385,75.984156 -173.66383,74.134399 -173.66383,72.284641 L -173.66383,61.698527 C -173.66383,56.811668 -178.55069,55.911785 -182.60016,55.911785 C -187.17456,55.911785 -191.84895,57.486579 -192.1739,62.723393 L -186.57464,62.723393"
         style="fill:#000000;fill-rule:evenodd;stroke:none"
         id="path4131" />
      <path
         d="M -171.85157,76.759055 L -165.60238,76.759055 L -161.34044,70.347395 L -157.091,76.759055 L -150.71683,76.759055 L -158.22835,65.935473 L -151.54173,56.41172 L -157.72842,56.41172 L -161.26545,61.723524 L -164.85248,56.41172 L -171.22665,56.41172 L -164.52753,66.060456 L -171.85157,76.759055"
         style="fill:#000000;fill-rule:nonzero;stroke:none"
         id="path4133" />
      <path
         d="M -130.88193,67.997702 C -130.48198,61.736023 -133.83155,55.911785 -140.75564,55.911785 C -146.94233,55.911785 -151.15428,60.548678 -151.15428,66.660378 C -151.15428,72.959553 -147.1798,77.358976 -140.75564,77.358976 C -136.15624,77.358976 -132.80668,75.321743 -131.23189,70.509873 L -136.15624,70.509873 C -136.5062,71.772208 -138.31846,73.147028 -140.56816,73.147028 C -143.66776,73.147028 -145.40503,71.534739 -145.56751,67.997702 L -130.88193,67.997702 z M -145.56751,64.448167 C -145.48002,62.873374 -144.45515,60.123734 -140.91812,60.123734 C -138.20597,60.123734 -136.98113,61.611039 -136.4687,64.448167 L -145.56751,64.448167"
         style="fill:#000000;fill-rule:evenodd;stroke:none"
         id="path4135" />
      <path
         d="M -128.00731,76.809048 L -122.40804,76.809048 L -122.40804,48.70023 L -128.00731,48.70023 L -128.00731,76.809048 z "
         style="fill:#000000;fill-rule:nonzero;stroke:none"
         id="path4137" />
      <path
         d="M -113.5717,70.197414 C -113.33423,75.596707 -108.72233,77.358976 -103.99795,77.358976 C -99.36106,77.358976 -94.711669,75.634202 -94.711669,70.272404 C -94.711669,66.497899 -97.898752,65.310554 -101.17332,64.573151 C -104.36041,63.823249 -107.50999,63.548285 -107.50999,61.536049 C -107.50999,59.886265 -105.66024,59.648796 -104.3979,59.648796 C -102.38566,59.648796 -100.73588,60.236219 -100.5734,62.398436 L -95.261597,62.398436 C -95.69904,57.399091 -99.786005,55.911785 -104.23542,55.911785 C -108.60985,55.911785 -113.09676,57.24911 -113.09676,62.448429 C -113.09676,66.022961 -109.87218,67.17281 -106.63511,67.872719 C -102.62313,68.747604 -100.29844,69.335027 -100.29844,71.022306 C -100.29844,72.997048 -102.34817,73.621966 -103.96046,73.621966 C -106.17267,73.621966 -108.2099,72.634595 -108.25989,70.197414 L -113.5717,70.197414"
         style="fill:#000000;fill-rule:nonzero;stroke:none"
         id="path4139" />
      <path
         d="M -92.236994,83.983109 L -86.650225,83.983109 L -86.650225,74.296877 L -86.562737,74.296877 C -85.225412,76.296615 -82.900716,77.358976 -80.463536,77.358976 C -74.526813,77.358976 -71.527206,72.284641 -71.527206,66.847853 C -71.527206,61.061111 -74.40183,55.911785 -80.775995,55.911785 C -83.300664,55.911785 -85.500376,56.899156 -86.837701,59.061373 L -86.925189,59.061373 L -86.925189,56.461713 L -92.236994,56.461713 L -92.236994,83.983109 z M -81.963339,73.147028 C -85.587864,73.147028 -86.837701,69.99744 -86.837701,66.697873 C -86.837701,63.385806 -85.662855,60.123734 -82.000834,60.123734 C -78.413804,60.123734 -77.113974,63.473295 -77.113974,66.697873 C -77.113974,69.99744 -78.301319,73.147028 -81.963339,73.147028"
         style="fill:#000000;fill-rule:evenodd;stroke:none"
         id="path4141" />
      <path
         d="M -69.215009,76.809048 L -63.628241,76.809048 L -63.628241,67.63525 C -63.628241,64.060718 -62.203427,61.636036 -58.116463,61.636036 C -57.441551,61.636036 -56.616659,61.723524 -56.104226,61.836009 L -56.104226,56.48671 C -56.491675,56.449215 -56.929118,56.449215 -57.329066,56.449215 C -60.04121,56.449215 -62.803349,57.686553 -63.815716,60.236219 L -63.903205,60.236219 L -63.903205,56.461713 L -69.215009,56.461713 L -69.215009,76.809048"
         style="fill:#000000;fill-rule:nonzero;stroke:none"
         id="path4143" />
      <path
         d="M -53.47957,76.809048 L -47.880303,76.809048 L -47.880303,56.461713 L -53.47957,56.461713 L -53.47957,76.809048 z M -53.47957,53.312126 L -47.880303,53.312126 L -47.880303,48.70023 L -53.47957,48.70023 L -53.47957,53.312126 z "
         style="fill:#000000;fill-rule:evenodd;stroke:none"
         id="path4145" />
      <path
         d="M -44.693221,76.809048 L -39.106452,76.809048 L -39.106452,66.147945 C -39.106452,62.010987 -37.806623,60.311209 -34.76952,60.311209 C -32.169861,60.311209 -31.194989,61.973491 -31.194989,65.310554 L -31.194989,76.809048 L -25.595722,76.809048 L -25.595722,64.298187 C -25.595722,59.261347 -27.095526,55.911785 -33.044746,55.911785 C -35.406937,55.911785 -37.844118,57.011641 -39.256433,59.298842 L -39.381416,59.298842 L -39.381416,56.461713 L -44.693221,56.461713 L -44.693221,76.809048"
         style="fill:#000000;fill-rule:nonzero;stroke:none"
         id="path4147" />
      <path
         d="M -2.5737374,56.461713 L -7.8855416,56.461713 L -7.8855416,59.173858 L -7.9730302,59.173858 C -9.310355,56.811668 -11.360087,55.911785 -14.034736,55.911785 C -19.746488,55.911785 -22.771092,60.711157 -22.771092,65.985466 C -22.771092,71.572234 -20.171432,76.221625 -14.072231,76.221625 C -11.635051,76.221625 -9.1853714,75.196759 -7.9730302,73.072038 L -7.8855416,73.072038 L -7.8855416,75.746687 C -7.8855416,78.658806 -9.2728599,80.783528 -12.372454,80.783528 C -14.347195,80.783528 -16.034474,80.083619 -16.546907,77.996393 L -22.108679,77.996393 C -21.821216,82.645784 -17.146829,84.533037 -13.122356,84.533037 C -3.7610819,84.533037 -2.5737374,78.85878 -2.5737374,75.509219 L -2.5737374,56.461713 z M -12.659916,72.009677 C -16.084468,72.009677 -17.184324,68.822594 -17.184324,65.910476 C -17.184324,62.873374 -15.797005,60.123734 -12.659916,60.123734 C -9.035391,60.123734 -7.8855416,63.073347 -7.8855416,66.385414 C -7.8855416,69.297532 -9.4603354,72.009677 -12.659916,72.009677"
         style="fill:#000000;fill-rule:evenodd;stroke:none"
         id="path4149" />
      <path
         d="M 20.373257,67.997702 C 20.760706,61.736023 17.411145,55.911785 10.487052,55.911785 C 4.3003623,55.911785 0.088413946,60.548678 0.088413946,66.660378 C 0.088413946,72.959553 4.0753917,77.358976 10.487052,77.358976 C 15.08645,77.358976 18.436011,75.321743 20.010805,70.509873 L 15.08645,70.509873 C 14.736495,71.772208 12.924233,73.147028 10.687026,73.147028 C 7.5749334,73.147028 5.8376609,71.534739 5.6876806,67.997702 L 20.373257,67.997702 z M 5.6876806,64.448167 C 5.7626707,62.873374 6.7875365,60.123734 10.324573,60.123734 C 13.049216,60.123734 14.261558,61.611039 14.77399,64.448167 L 5.6876806,64.448167"
         style="fill:#000000;fill-rule:evenodd;stroke:none"
         id="path4151" />
      <path
         d="M 23.322871,76.734058 L 28.922137,76.734058 L 28.922137,67.56026 C 28.922137,63.985728 30.334452,61.561045 34.433915,61.561045 C 35.096329,61.561045 35.921221,61.648534 36.433654,61.761019 L 36.433654,56.41172 C 36.046204,56.374225 35.608762,56.374225 35.208814,56.374225 C 32.496669,56.374225 29.747029,57.611563 28.722164,60.161229 L 28.634675,60.161229 L 28.634675,56.386723 L 23.322871,56.386723 L 23.322871,76.734058"
         style="fill:#000000;fill-rule:nonzero;stroke:none"
         id="path4153" />
    </g>
  </g>
</svg>
